<svg xmlns="http://www.w3.org/2000/svg" viewBox="0 0 100 100" width="100px" height="100px"><path fill="#eddc67" d="M77,16c-1.419,0-52.58,0-54,0c-1.657,0-3,1.343-3,3s1.343,3,3,3c1.42,0,52.581,0,54,0 c1.657,0,3-1.343,3-3S78.657,16,77,16z"/><path fill="#78cdd4" d="M24 22H76V76H24z"/><path fill="#f37e98" d="M24 76H76V84H24z"/><path fill="#fffef4" d="M42.5 32.5H47.5V38.5H42.5z"/><path fill="#fefdef" d="M32.5 32.5H37.5V38.5H32.5z"/><path fill="#fffef4" d="M52.5 32.5H57.5V38.5H52.5z"/><path fill="#fefdef" d="M62.5 32.5H67.5V38.5H62.5zM42.5 42.5H47.5V48.5H42.5z"/><path fill="#fffef4" d="M32.5 42.5H37.5V48.5H32.5zM52.5 42.5H57.5V48.5H52.5zM62.5 42.5H67.5V48.5H62.5z"/><path fill="#fefdef" d="M42.5 52.5H47.5V58.5H42.5zM32.5 52.5H37.5V58.5H32.5zM52.5 52.5H57.5V58.5H52.5zM62.5 52.5H67.5V58.5H62.5z"/><path fill="#fffef4" d="M42.5 62.5H47.5V68.5H42.5zM32.5 62.5H37.5V68.5H32.5z"/><path fill="#ceccbe" d="M54,76c0,1.196,0,8,0,8h-8c0,0,0-5.791,0-8s1.791-4,4-4S54,73.791,54,76z"/><path fill="#fffef4" d="M52.5 62.5H57.5V68.5H52.5z"/><path fill="#fefdef" d="M62.5 62.5H67.5V68.5H62.5z"/><path fill="none" stroke="#1f212b" stroke-linejoin="round" stroke-miterlimit="10" stroke-width="2" d="M24 22H76V84H24z"/><path fill="none" stroke="#1f212b" stroke-linecap="round" stroke-linejoin="round" stroke-miterlimit="10" stroke-width="2" d="M17 84L83 84M32 6L32 16M38 11L38 16"/><path fill="none" stroke="#1f212b" stroke-linecap="round" stroke-miterlimit="10" d="M24.5 26.5L40.5 26.5M43.5 26.5L44.5 26.5M47.5 26.5L53.5 26.5M56.5 26.5L75.5 26.5"/><path fill="none" stroke="#1f212b" stroke-linecap="round" stroke-linejoin="round" stroke-miterlimit="10" d="M42.5 32.5H47.5V38.5H42.5zM32.5 32.5H37.5V38.5H32.5zM52.5 32.5H57.5V38.5H52.5zM62.5 32.5H67.5V38.5H62.5zM42.5 42.5H47.5V48.5H42.5zM32.5 42.5H37.5V48.5H32.5zM52.5 42.5H57.5V48.5H52.5zM62.5 42.5H67.5V48.5H62.5zM42.5 52.5H47.5V58.5H42.5zM32.5 52.5H37.5V58.5H32.5zM52.5 52.5H57.5V58.5H52.5zM62.5 52.5H67.5V58.5H62.5zM42.5 62.5H47.5V68.5H42.5zM32.5 62.5H37.5V68.5H32.5zM52.5 62.5H57.5V68.5H52.5zM62.5 62.5H67.5V68.5H62.5z"/><path fill="none" stroke="#1f212b" stroke-linecap="round" stroke-linejoin="round" stroke-miterlimit="10" stroke-width="2" d="M54,76 c0,1.196,0,8,0,8h-8c0,0,0-5.791,0-8s1.791-4,4-4S54,73.791,54,76z"/><path fill="none" stroke="#1f212b" stroke-linecap="round" stroke-linejoin="round" stroke-miterlimit="10" d="M24.5 76.5L27.5 76.5M30.5 76.5L34.5 76.5M37.5 76.5L45.5 76.5M54.5 76.5L66.5 76.5M68.5 76.5L70.5 76.5M72.5 76.5L75.5 76.5"/><path fill="none" stroke="#1f212b" stroke-linecap="round" stroke-linejoin="round" stroke-miterlimit="10" stroke-width="2" d="M77,16 c-1.419,0-52.58,0-54,0c-1.657,0-3,1.343-3,3s1.343,3,3,3c1.42,0,52.581,0,54,0c1.657,0,3-1.343,3-3S78.657,16,77,16z"/></svg>