<svg xmlns="http://www.w3.org/2000/svg" viewBox="0 0 100 100" width="100px" height="100px"><rect width="20" height="50" x="61" y="35" fill="#8e9db5"/><rect width="4" height="6" x="64.5" y="59.5" fill="#fefdef"/><rect width="4" height="6" x="64.5" y="69.5" fill="#fefdef"/><rect width="4" height="6" x="72.5" y="59.5" fill="#fefdef"/><rect width="4" height="6" x="64.5" y="49.5" fill="#fefdef"/><rect width="4" height="6" x="72.5" y="49.5" fill="#fefdef"/><rect width="4" height="6" x="64.5" y="39.5" fill="#fefdef"/><rect width="4" height="6" x="72.5" y="39.5" fill="#fefdef"/><rect width="4" height="6" x="72.5" y="69.5" fill="#fefdef"/><rect width="20" height="6" x="61" y="79" fill="#f37e98"/><path fill="#eddc67" d="M61,35h19.5c1.381,0,2.5-1.119,2.5-2.5S81.881,30,80.5,30S61,30,61,30V35z"/><g><rect width="41" height="62" x="20" y="23" fill="#9dc4e8"/><rect width="4" height="6" x="50.5" y="39.5" fill="#fefdef"/><rect width="4" height="6" x="42.5" y="39.5" fill="#fefdef"/><rect width="4" height="6" x="50.5" y="49.5" fill="#fefdef"/><rect width="4" height="6" x="42.5" y="49.5" fill="#fefdef"/><rect width="4" height="6" x="50.5" y="59.5" fill="#fefdef"/><rect width="4" height="6" x="42.5" y="59.5" fill="#fefdef"/><rect width="4" height="6" x="26.5" y="39.5" fill="#fefdef"/><rect width="4" height="6" x="26.5" y="49.5" fill="#fefdef"/><rect width="4" height="6" x="26.5" y="59.5" fill="#fefdef"/><rect width="4" height="6" x="34.5" y="39.5" fill="#fefdef"/><rect width="4" height="6" x="50.5" y="29.5" fill="#fefdef"/><rect width="4" height="6" x="42.5" y="29.5" fill="#fefdef"/><rect width="4" height="6" x="26.5" y="29.5" fill="#fefdef"/><rect width="4" height="6" x="34.5" y="29.5" fill="#fefdef"/><rect width="4" height="6" x="34.5" y="49.5" fill="#fefdef"/><rect width="4" height="6" x="34.5" y="59.5" fill="#fefdef"/><rect width="4" height="6" x="50.5" y="69.5" fill="#fefdef"/><rect width="4" height="6" x="26.5" y="69.5" fill="#fefdef"/><rect width="41" height="6" x="20" y="79" fill="#f37e98"/><rect width="26" height="9" x="27.5" y="8.5" fill="#eddc67"/><path fill="#cdcbbd" d="M36,74.5c0-2.485,2.015-4.5,4.5-4.5s4.5,2.015,4.5,4.5c0,1.346,0,10.5,0,10.5h-9V74.5z"/></g><g><path fill="#1f212b" d="M61,86H20c-0.553,0-1-0.447-1-1V23c0-0.553,0.447-1,1-1h41c0.553,0,1,0.447,1,1v62 C62,85.553,61.553,86,61,86z M21,84h39V24H21V84z"/><path fill="#1f212b" d="M31,24c-0.553,0-1-0.447-1-1v-5c0-0.553,0.447-1,1-1s1,0.447,1,1v5C32,23.553,31.553,24,31,24z"/><path fill="#1f212b" d="M50,24c-0.553,0-1-0.447-1-1v-5c0-0.553,0.447-1,1-1s1,0.447,1,1v5C51,23.553,50.553,24,50,24z"/><path fill="#1f212b" d="M28.5,80h-8.583c-0.276,0-0.5-0.224-0.5-0.5s0.224-0.5,0.5-0.5H28.5c0.276,0,0.5,0.224,0.5,0.5 S28.776,80,28.5,80z"/><path fill="#1f212b" d="M34.917,80H31.5c-0.276,0-0.5-0.224-0.5-0.5s0.224-0.5,0.5-0.5h3.417c0.276,0,0.5,0.224,0.5,0.5 S35.193,80,34.917,80z"/><path fill="#1f212b" d="M59.917,80H51.5c-0.276,0-0.5-0.224-0.5-0.5s0.224-0.5,0.5-0.5h8.417c0.276,0,0.5,0.224,0.5,0.5 S60.193,80,59.917,80z"/><path fill="#1f212b" d="M54.5,46h-4c-0.276,0-0.5-0.224-0.5-0.5v-6c0-0.276,0.224-0.5,0.5-0.5h4c0.276,0,0.5,0.224,0.5,0.5 v6C55,45.776,54.776,46,54.5,46z M51,45h3v-5h-3V45z"/><path fill="#1f212b" d="M46.5,46h-4c-0.276,0-0.5-0.224-0.5-0.5v-6c0-0.276,0.224-0.5,0.5-0.5h4c0.276,0,0.5,0.224,0.5,0.5 v6C47,45.776,46.776,46,46.5,46z M43,45h3v-5h-3V45z"/><path fill="#1f212b" d="M54.5,56h-4c-0.276,0-0.5-0.224-0.5-0.5v-6c0-0.276,0.224-0.5,0.5-0.5h4c0.276,0,0.5,0.224,0.5,0.5 v6C55,55.776,54.776,56,54.5,56z M51,55h3v-5h-3V55z"/><path fill="#1f212b" d="M46.5,56h-4c-0.276,0-0.5-0.224-0.5-0.5v-6c0-0.276,0.224-0.5,0.5-0.5h4c0.276,0,0.5,0.224,0.5,0.5 v6C47,55.776,46.776,56,46.5,56z M43,55h3v-5h-3V55z"/><path fill="#1f212b" d="M54.5,66h-4c-0.276,0-0.5-0.224-0.5-0.5v-6c0-0.276,0.224-0.5,0.5-0.5h4c0.276,0,0.5,0.224,0.5,0.5 v6C55,65.776,54.776,66,54.5,66z M51,65h3v-5h-3V65z"/><path fill="#1f212b" d="M46.5,66h-4c-0.276,0-0.5-0.224-0.5-0.5v-6c0-0.276,0.224-0.5,0.5-0.5h4c0.276,0,0.5,0.224,0.5,0.5 v6C47,65.776,46.776,66,46.5,66z M43,65h3v-5h-3V65z"/><path fill="#1f212b" d="M30.5,46h-4c-0.276,0-0.5-0.224-0.5-0.5v-6c0-0.276,0.224-0.5,0.5-0.5h4c0.276,0,0.5,0.224,0.5,0.5 v6C31,45.776,30.776,46,30.5,46z M27,45h3v-5h-3V45z"/><path fill="#1f212b" d="M30.5,56h-4c-0.276,0-0.5-0.224-0.5-0.5v-6c0-0.276,0.224-0.5,0.5-0.5h4c0.276,0,0.5,0.224,0.5,0.5 v6C31,55.776,30.776,56,30.5,56z M27,55h3v-5h-3V55z"/><path fill="#1f212b" d="M30.5,66h-4c-0.276,0-0.5-0.224-0.5-0.5v-6c0-0.276,0.224-0.5,0.5-0.5h4c0.276,0,0.5,0.224,0.5,0.5 v6C31,65.776,30.776,66,30.5,66z M27,65h3v-5h-3V65z"/><path fill="#1f212b" d="M38.5,46h-4c-0.276,0-0.5-0.224-0.5-0.5v-6c0-0.276,0.224-0.5,0.5-0.5h4c0.276,0,0.5,0.224,0.5,0.5 v6C39,45.776,38.776,46,38.5,46z M35,45h3v-5h-3V45z"/><path fill="#1f212b" d="M54.5,36h-4c-0.276,0-0.5-0.224-0.5-0.5v-6c0-0.276,0.224-0.5,0.5-0.5h4c0.276,0,0.5,0.224,0.5,0.5 v6C55,35.776,54.776,36,54.5,36z M51,35h3v-5h-3V35z"/><path fill="#1f212b" d="M46.5,36h-4c-0.276,0-0.5-0.224-0.5-0.5v-6c0-0.276,0.224-0.5,0.5-0.5h4c0.276,0,0.5,0.224,0.5,0.5 v6C47,35.776,46.776,36,46.5,36z M43,35h3v-5h-3V35z"/><path fill="#1f212b" d="M30.5,36h-4c-0.276,0-0.5-0.224-0.5-0.5v-6c0-0.276,0.224-0.5,0.5-0.5h4c0.276,0,0.5,0.224,0.5,0.5 v6C31,35.776,30.776,36,30.5,36z M27,35h3v-5h-3V35z"/><path fill="#1f212b" d="M38.5,36h-4c-0.276,0-0.5-0.224-0.5-0.5v-6c0-0.276,0.224-0.5,0.5-0.5h4c0.276,0,0.5,0.224,0.5,0.5 v6C39,35.776,38.776,36,38.5,36z M35,35h3v-5h-3V35z"/><path fill="#1f212b" d="M38.5,56h-4c-0.276,0-0.5-0.224-0.5-0.5v-6c0-0.276,0.224-0.5,0.5-0.5h4c0.276,0,0.5,0.224,0.5,0.5 v6C39,55.776,38.776,56,38.5,56z M35,55h3v-5h-3V55z"/><path fill="#1f212b" d="M38.5,66h-4c-0.276,0-0.5-0.224-0.5-0.5v-6c0-0.276,0.224-0.5,0.5-0.5h4c0.276,0,0.5,0.224,0.5,0.5 v6C39,65.776,38.776,66,38.5,66z M35,65h3v-5h-3V65z"/><path fill="#1f212b" d="M54.5,76h-4c-0.276,0-0.5-0.224-0.5-0.5v-6c0-0.276,0.224-0.5,0.5-0.5h4c0.276,0,0.5,0.224,0.5,0.5 v6C55,75.776,54.776,76,54.5,76z M51,75h3v-5h-3V75z"/><path fill="#1f212b" d="M30.5,76h-4c-0.276,0-0.5-0.224-0.5-0.5v-6c0-0.276,0.224-0.5,0.5-0.5h4c0.276,0,0.5,0.224,0.5,0.5 v6C31,75.776,30.776,76,30.5,76z M27,75h3v-5h-3V75z"/><path fill="#1f212b" d="M86,86H15c-0.553,0-1-0.447-1-1s0.447-1,1-1h71c0.553,0,1,0.447,1,1S86.553,86,86,86z"/><path fill="#1f212b" d="M53.5,18h-26c-0.276,0-0.5-0.224-0.5-0.5v-9C27,8.224,27.224,8,27.5,8h26C53.776,8,54,8.224,54,8.5 v9C54,17.776,53.776,18,53.5,18z M28,17h25V9H28V17z"/><path fill="#1f212b" d="M44.5,12h-13c-0.276,0-0.5-0.224-0.5-0.5s0.224-0.5,0.5-0.5h13c0.276,0,0.5,0.224,0.5,0.5 S44.776,12,44.5,12z"/><path fill="#1f212b" d="M39.5,15h-3c-0.276,0-0.5-0.224-0.5-0.5s0.224-0.5,0.5-0.5h3c0.276,0,0.5,0.224,0.5,0.5 S39.776,15,39.5,15z"/><path fill="#1f212b" d="M49.5,15h-7c-0.276,0-0.5-0.224-0.5-0.5s0.224-0.5,0.5-0.5h7c0.276,0,0.5,0.224,0.5,0.5 S49.776,15,49.5,15z"/><path fill="#1f212b" d="M45,86h-9c-0.553,0-1-0.447-1-1V74.5c0-3.032,2.468-5.5,5.5-5.5s5.5,2.468,5.5,5.5V85 C46,85.553,45.553,86,45,86z M37,84h7v-9.5c0-1.93-1.57-3.5-3.5-3.5S37,72.57,37,74.5V84z"/><path fill="#1f212b" d="M49.5,80h-4c-0.276,0-0.5-0.224-0.5-0.5s0.224-0.5,0.5-0.5h4c0.276,0,0.5,0.224,0.5,0.5 S49.776,80,49.5,80z"/></g><g><path fill="#1f212b" d="M80.5,80h-3c-0.276,0-0.5-0.224-0.5-0.5s0.224-0.5,0.5-0.5h3c0.276,0,0.5,0.224,0.5,0.5 S80.776,80,80.5,80z"/><path fill="#1f212b" d="M75.5,80h-2c-0.276,0-0.5-0.224-0.5-0.5s0.224-0.5,0.5-0.5h2c0.276,0,0.5,0.224,0.5,0.5 S75.776,80,75.5,80z"/><path fill="#1f212b" d="M70.5,80h-7c-0.276,0-0.5-0.224-0.5-0.5s0.224-0.5,0.5-0.5h7c0.276,0,0.5,0.224,0.5,0.5 S70.776,80,70.5,80z"/><path fill="#1f212b" d="M81,86H61c-0.553,0-1-0.447-1-1V35c0-0.553,0.447-1,1-1h20c0.553,0,1,0.447,1,1v50 C82,85.553,81.553,86,81,86z M62,84h18V36H62V84z"/><path fill="#1f212b" d="M80.5,36h-19c-0.553,0-1-0.447-1-1s0.447-1,1-1h19c0.827,0,1.5-0.673,1.5-1.5S81.327,31,80.5,31H61 c-0.553,0-1-0.447-1-1s0.447-1,1-1h19.5c1.93,0,3.5,1.57,3.5,3.5S82.43,36,80.5,36z"/><path fill="#1f212b" d="M68.5,66h-4c-0.276,0-0.5-0.224-0.5-0.5v-6c0-0.276,0.224-0.5,0.5-0.5h4c0.276,0,0.5,0.224,0.5,0.5 v6C69,65.776,68.776,66,68.5,66z M65,65h3v-5h-3V65z"/><path fill="#1f212b" d="M68.5,76h-4c-0.276,0-0.5-0.224-0.5-0.5v-6c0-0.276,0.224-0.5,0.5-0.5h4c0.276,0,0.5,0.224,0.5,0.5 v6C69,75.776,68.776,76,68.5,76z M65,75h3v-5h-3V75z"/><path fill="#1f212b" d="M76.5,66h-4c-0.276,0-0.5-0.224-0.5-0.5v-6c0-0.276,0.224-0.5,0.5-0.5h4c0.276,0,0.5,0.224,0.5,0.5 v6C77,65.776,76.776,66,76.5,66z M73,65h3v-5h-3V65z"/><path fill="#1f212b" d="M68.5,56h-4c-0.276,0-0.5-0.224-0.5-0.5v-6c0-0.276,0.224-0.5,0.5-0.5h4c0.276,0,0.5,0.224,0.5,0.5 v6C69,55.776,68.776,56,68.5,56z M65,55h3v-5h-3V55z"/><path fill="#1f212b" d="M76.5,56h-4c-0.276,0-0.5-0.224-0.5-0.5v-6c0-0.276,0.224-0.5,0.5-0.5h4c0.276,0,0.5,0.224,0.5,0.5 v6C77,55.776,76.776,56,76.5,56z M73,55h3v-5h-3V55z"/><path fill="#1f212b" d="M68.5,46h-4c-0.276,0-0.5-0.224-0.5-0.5v-6c0-0.276,0.224-0.5,0.5-0.5h4c0.276,0,0.5,0.224,0.5,0.5 v6C69,45.776,68.776,46,68.5,46z M65,45h3v-5h-3V45z"/><path fill="#1f212b" d="M76.5,46h-4c-0.276,0-0.5-0.224-0.5-0.5v-6c0-0.276,0.224-0.5,0.5-0.5h4c0.276,0,0.5,0.224,0.5,0.5 v6C77,45.776,76.776,46,76.5,46z M73,45h3v-5h-3V45z"/><path fill="#1f212b" d="M76.5,76h-4c-0.276,0-0.5-0.224-0.5-0.5v-6c0-0.276,0.224-0.5,0.5-0.5h4c0.276,0,0.5,0.224,0.5,0.5 v6C77,75.776,76.776,76,76.5,76z M73,75h3v-5h-3V75z"/></g></svg>