<svg xmlns="http://www.w3.org/2000/svg" viewBox="0 0 48 48" width="96px" height="96px"><polygon fill="#ffd54f" points="9,15 7,16 5,15 4,11 7,10 10,11"/><polygon fill="#263238" points="8,17 6,17 5,15 9,15"/><polygon fill="#263238" points="7,7 3,11 11,11"/><rect width="2" height="18" x="6" y="16" fill="#263238"/><rect width="4" height="8" x="33" y="34" fill="#795548"/><path fill="#009688" d="M35,16L24,36h22L35,16z"/><path fill="#009688" d="M35,11l-9,15h18L35,11z"/><path fill="#009688" d="M35,7l-6,9h12L35,7z"/><path fill="#00796b" d="M40.5,26h-11l-1.1,2h13.2L40.5,26z"/><path fill="#00796b" d="M38,16h-6l-1.2,2h8.4L38,16z"/><rect width="4" height="11" x="25" y="31" fill="#795548"/><circle cx="26.5" cy="12.5" r="4.5" fill="#8bc34a"/><circle cx="32" cy="29" r="5" fill="#8bc34a"/><path fill="#8bc34a" d="M37,22.5c0,1.9-1.6,3.5-3.5,3.5c-1.9,0-3.5-1.6-3.5-3.5s1.6-3.5,3.5-3.5C35.4,19,37,20.6,37,22.5z"/><circle cx="31" cy="17" r="4" fill="#8bc34a"/><circle cx="26.5" cy="32.5" r="4.5" fill="#8bc34a"/><path fill="#8bc34a" d="M32,22.5c0-4.1-2.7-7.5-6-7.5s-6,3.4-6,7.5s2.7,7.5,6,7.5S32,26.6,32,22.5z"/><circle cx="22" cy="15" r="4" fill="#8bc34a"/><circle cx="21.5" cy="30.5" r="3.5" fill="#8bc34a"/><path fill="#8bc34a" d="M23,20.5c0,1.9-1.6,3.5-3.5,3.5S16,22.4,16,20.5s1.6-3.5,3.5-3.5S23,18.6,23,20.5z"/><path fill="#8bc34a" d="M23,25.5c0,1.9-1.6,3.5-3.5,3.5S16,27.4,16,25.5s1.6-3.5,3.5-3.5S23,23.6,23,25.5z"/><path fill="#689f38" d="M22,18.5c-0.6,0-1-0.4-1-1c0-2.5,2-4.5,4.5-4.5c0.6,0,1,0.4,1,1s-0.4,1-1,1c-1.4,0-2.5,1.1-2.5,2.5 C23,18.1,22.6,18.5,22,18.5z"/><path fill="#689f38" d="M31,25c-0.6,0-1-0.4-1-1c0-1.7-1.3-3-3-3c-0.6,0-1-0.4-1-1s0.4-1,1-1c2.8,0,5,2.2,5,5 C32,24.6,31.6,25,31,25z"/><path fill="#689f38" d="M24,31c-0.6,0-1-0.4-1-1c0-1.9,1.6-3.5,3.5-3.5c0.6,0,1,0.4,1,1s-0.4,1-1,1c-0.8,0-1.5,0.7-1.5,1.5 C25,30.6,24.6,31,24,31z"/><path fill="#607d8b" d="M7,35h14v3H7V35z"/><rect width="2" height="7" x="6" y="35" fill="#90a4ae"/><rect width="2" height="7" x="20" y="35" fill="#90a4ae"/><path fill="#ff9800" d="M4,33h20v3H4V33z"/></svg>