<svg xmlns="http://www.w3.org/2000/svg" viewBox="0 0 100 100" width="100px" height="100px"><polygon fill="#fcba7f" points="40,84 36,21 22,21 18,84"/><polygon fill="#fed5b3" points="36.762,33 36.381,27 21.619,27 21.238,33"/><rect width="36" height="26" x="14" y="58" fill="#39c1d7"/><rect width="36" height="46" x="50" y="38" fill="#78cdd4"/><rect width="36" height="6" x="14" y="78" fill="#ef6388"/><rect width="36" height="6" x="50" y="78" fill="#f37e98"/><path fill="#eddc67" d="M87.5,38c1.381,0,2.5-1.119,2.5-2.5S88.881,33,87.5,33s-37.619,0-39,0S46,34.119,46,35.5 s1.119,2.5,2.5,2.5H87.5z"/><polygon fill="#f37e98" points="86,33 80,23 72,23 72,22 61,22 61,23 56,23 50,33"/><rect width="5" height="10" x="19.5" y="63.5" fill="#e9e3c9"/><rect width="5" height="10" x="29.5" y="63.5" fill="#e9e3c9"/><rect width="5" height="10" x="39.5" y="63.5" fill="#e9e3c9"/><path fill="#eddc67" d="M50,53c0,0-36.119,0-37.5,0S10,54.119,10,55.5s1.119,2.5,2.5,2.5H50V53z"/><polygon fill="#ef6388" points="14,53 20,43 50,43 50,53"/><path fill="#fffef4" d="M65.5,73.5h-10v-25c0-2.761,2.239-5,5-5s5,2.239,5,5C65.5,50.143,65.5,73.5,65.5,73.5z"/><path fill="#fffef4" d="M70.5,48.5c0-2.761,2.239-5,5-5s5,2.239,5,5c0,1.643,0,25,0,25h-10C70.5,73.5,70.5,51.261,70.5,48.5 z"/><path fill="#eddc67" d="M36.5,16c-1.046,0-13.954,0-15,0c-1.381,0-2.5,1.119-2.5,2.5c0,1.381,1.119,2.5,2.5,2.5 c1.046,0,13.954,0,15,0c1.381,0,2.5-1.119,2.5-2.5C39,17.119,37.881,16,36.5,16z"/><g><path fill="#1f212b" d="M69.5,79h-19c-0.276,0-0.5-0.224-0.5-0.5s0.224-0.5,0.5-0.5h19c0.276,0,0.5,0.224,0.5,0.5 S69.776,79,69.5,79z"/><path fill="#1f212b" d="M77.5,79h-5c-0.276,0-0.5-0.224-0.5-0.5s0.224-0.5,0.5-0.5h5c0.276,0,0.5,0.224,0.5,0.5 S77.776,79,77.5,79z"/><path fill="#1f212b" d="M87.5,39h-39c-1.93,0-3.5-1.57-3.5-3.5s1.57-3.5,3.5-3.5h39c1.93,0,3.5,1.57,3.5,3.5 S89.43,39,87.5,39z M48.5,34c-0.827,0-1.5,0.673-1.5,1.5s0.673,1.5,1.5,1.5h39c0.827,0,1.5-0.673,1.5-1.5S88.327,34,87.5,34H48.5z"/><path fill="#1f212b" d="M86,85H50c-0.553,0-1-0.447-1-1V38c0-0.553,0.447-1,1-1h36c0.553,0,1,0.447,1,1v46 C87,84.553,86.553,85,86,85z M51,83h34V39H51V83z"/><path fill="#1f212b" d="M80,24h-8c-0.553,0-1-0.447-1-1s0.447-1,1-1h8c0.553,0,1,0.447,1,1S80.553,24,80,24z"/><path fill="#1f212b" d="M68,24h-3c-0.553,0-1-0.447-1-1s0.447-1,1-1h3c0.553,0,1,0.447,1,1S68.553,24,68,24z"/><path fill="#1f212b" d="M49.999,34c-0.175,0-0.353-0.046-0.514-0.143c-0.474-0.284-0.627-0.898-0.343-1.372l6-10 C55.323,22.185,55.648,22,56,22h5c0.553,0,1,0.447,1,1s-0.447,1-1,1h-4.434l-5.709,9.515C50.67,33.827,50.339,34,49.999,34z"/><path fill="#1f212b" d="M86.001,34c-0.34,0-0.671-0.173-0.858-0.485l-6-10c-0.284-0.474-0.131-1.088,0.343-1.372 c0.475-0.285,1.088-0.131,1.372,0.343l6,10c0.284,0.474,0.131,1.088-0.343,1.372C86.354,33.954,86.176,34,86.001,34z"/><path fill="#1f212b" d="M61,28c-0.553,0-1-0.447-1-1V13c0-0.553,0.447-1,1-1s1,0.447,1,1v14C62,27.553,61.553,28,61,28z"/><path fill="#1f212b" d="M68,28c-0.553,0-1-0.447-1-1v-9c0-0.553,0.447-1,1-1s1,0.447,1,1v9C69,27.553,68.553,28,68,28z"/><path fill="#1f212b" d="M82.5,79h-2c-0.276,0-0.5-0.224-0.5-0.5s0.224-0.5,0.5-0.5h2c0.276,0,0.5,0.224,0.5,0.5 S82.776,79,82.5,79z"/><path fill="#1f212b" d="M24.5,69h-5c-0.276,0-0.5-0.224-0.5-0.5s0.224-0.5,0.5-0.5h5c0.276,0,0.5,0.224,0.5,0.5 S24.776,69,24.5,69z"/><path fill="#1f212b" d="M24.5,74h-5c-0.276,0-0.5-0.224-0.5-0.5v-10c0-0.276,0.224-0.5,0.5-0.5h5c0.276,0,0.5,0.224,0.5,0.5 v10C25,73.776,24.776,74,24.5,74z M20,73h4v-9h-4V73z"/><path fill="#1f212b" d="M34.5,69h-5c-0.276,0-0.5-0.224-0.5-0.5s0.224-0.5,0.5-0.5h5c0.276,0,0.5,0.224,0.5,0.5 S34.776,69,34.5,69z"/><path fill="#1f212b" d="M34.5,74h-5c-0.276,0-0.5-0.224-0.5-0.5v-10c0-0.276,0.224-0.5,0.5-0.5h5c0.276,0,0.5,0.224,0.5,0.5 v10C35,73.776,34.776,74,34.5,74z M30,73h4v-9h-4V73z"/><path fill="#1f212b" d="M42.5,69h-3c-0.276,0-0.5-0.224-0.5-0.5s0.224-0.5,0.5-0.5h3c0.276,0,0.5,0.224,0.5,0.5 S42.776,69,42.5,69z"/><path fill="#1f212b" d="M44.5,74h-5c-0.276,0-0.5-0.224-0.5-0.5v-10c0-0.276,0.224-0.5,0.5-0.5h5c0.276,0,0.5,0.224,0.5,0.5 v10C45,73.776,44.776,74,44.5,74z M40,73h4v-9h-4V73z"/><path fill="#1f212b" d="M46.5,79h-32c-0.276,0-0.5-0.224-0.5-0.5s0.224-0.5,0.5-0.5h32c0.276,0,0.5,0.224,0.5,0.5 S46.776,79,46.5,79z"/><path fill="#1f212b" d="M91,85H9c-0.553,0-1-0.447-1-1s0.447-1,1-1h82c0.553,0,1,0.447,1,1S91.553,85,91,85z"/><path fill="#1f212b" d="M50,59H12.5C10.57,59,9,57.43,9,55.5s1.57-3.5,3.5-3.5H50c0.553,0,1,0.447,1,1s-0.447,1-1,1H12.5 c-0.827,0-1.5,0.673-1.5,1.5s0.673,1.5,1.5,1.5H50c0.553,0,1,0.447,1,1S50.553,59,50,59z"/><path fill="#1f212b" d="M50,85H14c-0.553,0-1-0.447-1-1V58c0-0.553,0.447-1,1-1h36c0.553,0,1,0.447,1,1v26 C51,84.553,50.553,85,50,85z M15,83h34V59H15V83z"/><path fill="#1f212b" d="M13.999,54c-0.175,0-0.353-0.046-0.514-0.143c-0.474-0.284-0.627-0.898-0.343-1.372l6-10 C19.323,42.185,19.648,42,20,42h30c0.553,0,1,0.447,1,1s-0.447,1-1,1H20.566l-5.709,9.515C14.67,53.827,14.339,54,13.999,54z"/><path fill="#1f212b" d="M63.5,49h-8c-0.276,0-0.5-0.224-0.5-0.5s0.224-0.5,0.5-0.5h8c0.276,0,0.5,0.224,0.5,0.5 S63.776,49,63.5,49z"/><path fill="#1f212b" d="M65.5,54h-8c-0.276,0-0.5-0.224-0.5-0.5s0.224-0.5,0.5-0.5h8c0.276,0,0.5,0.224,0.5,0.5 S65.776,54,65.5,54z"/><path fill="#1f212b" d="M78.5,49h-8c-0.276,0-0.5-0.224-0.5-0.5s0.224-0.5,0.5-0.5h8c0.276,0,0.5,0.224,0.5,0.5 S78.776,49,78.5,49z"/><path fill="#1f212b" d="M80.5,54h-10c-0.276,0-0.5-0.224-0.5-0.5s0.224-0.5,0.5-0.5h10c0.276,0,0.5,0.224,0.5,0.5 S80.776,54,80.5,54z"/><path fill="#1f212b" d="M80.5,59h-8c-0.276,0-0.5-0.224-0.5-0.5s0.224-0.5,0.5-0.5h8c0.276,0,0.5,0.224,0.5,0.5 S80.776,59,80.5,59z"/><path fill="#1f212b" d="M65.5,74h-10c-0.276,0-0.5-0.224-0.5-0.5v-25c0-3.032,2.468-5.5,5.5-5.5s5.5,2.468,5.5,5.5v25 C66,73.776,65.776,74,65.5,74z M56,73h9V48.5c0-2.481-2.019-4.5-4.5-4.5S56,46.019,56,48.5V73z"/><path fill="#1f212b" d="M60.5,74c-0.276,0-0.5-0.224-0.5-0.5v-30c0-0.276,0.224-0.5,0.5-0.5s0.5,0.224,0.5,0.5v30 C61,73.776,60.776,74,60.5,74z"/><path fill="#1f212b" d="M65.5,64h-8c-0.276,0-0.5-0.224-0.5-0.5s0.224-0.5,0.5-0.5h8c0.276,0,0.5,0.224,0.5,0.5 S65.776,64,65.5,64z"/><path fill="#1f212b" d="M65.5,59h-10c-0.276,0-0.5-0.224-0.5-0.5s0.224-0.5,0.5-0.5h10c0.276,0,0.5,0.224,0.5,0.5 S65.776,59,65.5,59z"/><path fill="#1f212b" d="M65.5,69h-10c-0.276,0-0.5-0.224-0.5-0.5s0.224-0.5,0.5-0.5h10c0.276,0,0.5,0.224,0.5,0.5 S65.776,69,65.5,69z"/><path fill="#1f212b" d="M80.5,74h-10c-0.276,0-0.5-0.224-0.5-0.5v-25c0-3.032,2.468-5.5,5.5-5.5s5.5,2.468,5.5,5.5v25 C81,73.776,80.776,74,80.5,74z M71,73h9V48.5c0-2.481-2.019-4.5-4.5-4.5S71,46.019,71,48.5V73z"/><path fill="#1f212b" d="M75.5,74c-0.276,0-0.5-0.224-0.5-0.5v-30c0-0.276,0.224-0.5,0.5-0.5s0.5,0.224,0.5,0.5v30 C76,73.776,75.776,74,75.5,74z"/><path fill="#1f212b" d="M80.5,64h-10c-0.276,0-0.5-0.224-0.5-0.5s0.224-0.5,0.5-0.5h10c0.276,0,0.5,0.224,0.5,0.5 S80.776,64,80.5,64z"/><path fill="#1f212b" d="M80.5,69h-8c-0.276,0-0.5-0.224-0.5-0.5s0.224-0.5,0.5-0.5h8c0.276,0,0.5,0.224,0.5,0.5 S80.776,69,80.5,69z"/><path fill="#1f212b" d="M36.5,22h-15c-1.93,0-3.5-1.57-3.5-3.5s1.57-3.5,3.5-3.5h15c1.93,0,3.5,1.57,3.5,3.5 S38.43,22,36.5,22z M21.5,17c-0.827,0-1.5,0.673-1.5,1.5s0.673,1.5,1.5,1.5h15c0.827,0,1.5-0.673,1.5-1.5S37.327,17,36.5,17H21.5z"/><path fill="#1f212b" d="M27.5,28h-6.227c-0.276,0-0.5-0.224-0.5-0.5s0.224-0.5,0.5-0.5H27.5c0.276,0,0.5,0.224,0.5,0.5 S27.776,28,27.5,28z"/><path fill="#1f212b" d="M32.5,28h-2c-0.276,0-0.5-0.224-0.5-0.5s0.224-0.5,0.5-0.5h2c0.276,0,0.5,0.224,0.5,0.5 S32.776,28,32.5,28z"/><path fill="#1f212b" d="M37,33H21c-0.276,0-0.5-0.224-0.5-0.5S20.724,32,21,32h16c0.276,0,0.5,0.224,0.5,0.5 S37.276,33,37,33z"/><path fill="#1f212b" d="M21.587,43l1.333-21H29h6.079l1.333,21h2.004l-1.401-22.063C36.983,20.41,36.545,20,36.018,20H29 h-7.018c-0.527,0-0.965,0.41-0.998,0.937L19.583,43H21.587z"/></g></svg>