<svg xmlns="http://www.w3.org/2000/svg" viewBox="0 0 100 100" width="100px" height="100px"><path fill="#fefdef" d="M81.905,38.575l-1.638-15.552v-2.482c0-1.081-0.913-1.966-2.028-1.966H22.296c-1.115,0-2.028,0.885-2.028,1.966v1.545l-2.12,16.346c-0.001,0-0.002,0-0.003,0c0,0.005,0,0.01-0.001,0.015l-0.005,0.128c-0.016,0.364-0.026,0.753-0.026,1.185c0,1.77,0.751,2.768,2.155,3.315v0.5v36h59v-36h0.429c1.278-0.673,2.208-2.095,2.208-3.775c0-0.408-0.008-0.779-0.02-1.225H81.905z"/><path fill="#1f212b" d="M79.268,80.575h-59c-0.553,0-1-0.447-1-1V43.711c-1.431-0.784-2.155-2.11-2.155-3.95c0-0.448,0.011-0.851,0.027-1.229l0.005-0.123c0-0.012,0.001-0.023,0.002-0.035c0.003-0.05,0.009-0.1,0.02-0.147l2.102-16.205v-1.48c0-1.636,1.358-2.966,3.028-2.966h55.943c1.67,0,3.028,1.33,3.028,2.966v2.429L82.9,38.47c0.011,0.094,0.007,0.188-0.01,0.279c0.01,0.369,0.016,0.695,0.016,1.05c0,1.912-1.031,3.706-2.638,4.604v35.172C80.268,80.128,79.82,80.575,79.268,80.575z M21.268,78.575h57v-35c0-0.553,0.447-1,1-1h0.162c0.903-0.572,1.476-1.637,1.476-2.775c0-0.398-0.008-0.76-0.021-1.196c-0.001-0.042,0.001-0.084,0.005-0.126l-1.616-15.351c-0.004-0.034-0.006-0.069-0.006-0.104v-2.481c0-0.532-0.461-0.966-1.028-0.966H22.296c-0.567,0-1.028,0.434-1.028,0.966v1.545c0,0.043-0.003,0.086-0.009,0.129l-2.121,16.398c-0.015,0.355-0.025,0.73-0.025,1.147c0,1.289,0.426,1.957,1.519,2.383c0.384,0.149,0.637,0.52,0.637,0.932V78.575z"/><path fill="#c7dff1" d="M24.268 41.575L24.268 51.289 24.268 67.999 24.268 76.575 25.268 76.575 56.709 76.575 60.268 76.575 60.268 69.483 60.268 40.575M63.268 40.575L63.268 50.289 63.268 66.999 63.268 75.575 63.629 75.575 74.983 75.575 76.268 75.575 76.268 68.483 76.268 39.575"/><path fill="#1f212b" d="M75.768 76.571h-13c-.274 0-.496-.222-.496-.496v-22c0-.274.222-.496.496-.496s.496.222.496.496v21.504h12.008V42.075c0-.274.222-.496.496-.496s.496.222.496.496v34C76.264 76.349 76.042 76.571 75.768 76.571zM62.768 51.571c-.274 0-.496-.222-.496-.496v-2c0-.274.222-.496.496-.496s.496.222.496.496v2C63.264 51.349 63.042 51.571 62.768 51.571zM62.768 47.571c-.274 0-.496-.222-.496-.496v-4c0-.274.222-.496.496-.496s.496.222.496.496v4C63.264 47.349 63.042 47.571 62.768 47.571zM23.768 68.571c-.274 0-.496-.222-.496-.496v-25c0-.274.222-.496.496-.496s.496.222.496.496v25C24.264 68.349 24.042 68.571 23.768 68.571zM23.768 73.571c-.274 0-.496-.222-.496-.496v-2c0-.274.222-.496.496-.496s.496.222.496.496v2C24.264 73.349 24.042 73.571 23.768 73.571zM59.768 76.571h-35c-.274 0-.496-.222-.496-.496s.222-.496.496-.496h34.504V42.075c0-.274.222-.496.496-.496s.496.222.496.496v34C60.264 76.349 60.042 76.571 59.768 76.571z"/><path fill="#fff" d="M72.268 57.075A1.5 1.5 0 1 0 72.268 60.075A1.5 1.5 0 1 0 72.268 57.075Z"/><path fill="#1f212b" d="M72.268,60.575c-1.103,0-2-0.897-2-2s0.897-2,2-2s2,0.897,2,2S73.37,60.575,72.268,60.575z M72.268,57.575c-0.552,0-1,0.448-1,1s0.448,1,1,1s1-0.448,1-1S72.819,57.575,72.268,57.575z"/><path fill="#fefdef" d="M38.109 56.127L40.942 53.02"/><path fill="#1f212b" d="M38.109,56.628c-0.12,0-0.241-0.043-0.337-0.131c-0.204-0.186-0.219-0.502-0.032-0.706l2.834-3.107c0.187-0.203,0.503-0.219,0.706-0.032c0.204,0.186,0.219,0.502,0.032,0.706l-2.834,3.107C38.379,56.573,38.244,56.628,38.109,56.628z"/><path fill="#fefdef" d="M45.26 54.896L41.524 52.847"/><path fill="#1f212b" d="M45.26,55.396c-0.082,0-0.164-0.02-0.24-0.062l-3.736-2.049c-0.242-0.133-0.331-0.437-0.198-0.679c0.133-0.244,0.439-0.33,0.679-0.198l3.736,2.049c0.242,0.133,0.331,0.437,0.198,0.679C45.608,55.302,45.436,55.396,45.26,55.396z"/><path fill="#fefdef" d="M41.761,52.768c0.046,0.261-0.138,0.508-0.41,0.552c-0.272,0.044-0.53-0.132-0.576-0.393c-0.046-0.261,0.138-0.508,0.41-0.552C41.457,52.331,41.715,52.507,41.761,52.768z"/><path fill="#1f212b" d="M41.268,53.827c-0.478,0-0.902-0.339-0.985-0.814c-0.045-0.255,0.014-0.513,0.164-0.725c0.156-0.219,0.39-0.363,0.658-0.406c0.542-0.089,1.057,0.271,1.148,0.801c0.045,0.255-0.014,0.513-0.164,0.725c-0.156,0.219-0.39,0.363-0.658,0.406C41.376,53.822,41.321,53.827,41.268,53.827z M41.269,52.854c0.001,0.008,0.005,0.015,0.007,0.016C41.276,52.87,41.269,52.855,41.269,52.854z"/><path fill="#fefdef" d="M52.416 59.071L33.329 62.145 32.458 57.173 51.546 54.099z"/><path fill="#1f212b" d="M33.328,62.645c-0.238,0-0.449-0.171-0.491-0.414l-0.871-4.973c-0.023-0.132,0.007-0.267,0.085-0.376c0.077-0.109,0.195-0.183,0.328-0.203l19.087-3.073c0.265-0.048,0.524,0.138,0.571,0.407l0.871,4.972c0.023,0.132-0.007,0.267-0.085,0.376c-0.077,0.109-0.195,0.183-0.328,0.203l-19.087,3.074C33.382,62.643,33.355,62.645,33.328,62.645z M33.038,57.586l0.698,3.987l18.1-2.915l-0.698-3.986L33.038,57.586z"/><path fill="#fff" d="M25.768,24.075h-4.885l-2.495,14.246c-0.001,0-0.022,0.004-0.023,0.004c0,0.004,0-0.004,0,0l0,0l0,0c-0.015,0.331-0.024,0.683-0.024,1.075v0c0,2.021,1.47,3.675,3.267,3.675h0.566c1.797,0,3.593-1.654,3.593-3.675l0,0c0-0.389,0.013-0.745,0-1.075l0,0V24.075z"/><path fill="#1f212b" d="M22.175,43.575h-0.566c-2.077,0-3.767-1.873-3.767-4.175c0-0.399,0.01-0.76,0.024-1.098c0.004-0.073,0.022-0.142,0.054-0.203l2.471-14.11c0.042-0.239,0.249-0.414,0.492-0.414h4.885c0.276,0,0.5,0.224,0.5,0.5v14.25c0.008,0.206,0.006,0.442,0.003,0.692L26.268,39.4C26.268,41.624,24.356,43.575,22.175,43.575z M18.86,38.488c-0.011,0.283-0.018,0.584-0.018,0.912c0,1.751,1.241,3.175,2.767,3.175h0.566c1.46,0,3.093-1.357,3.093-3.175l0.003-0.394c0.003-0.233,0.006-0.453-0.003-0.662v-13.77h-3.965l-2.422,13.832C18.876,38.435,18.869,38.462,18.86,38.488z"/><path fill="#f37e98" d="M32.768,24.075h-7v14h0.024c-0.015,0.347-0.024,0.722-0.024,1.132c0,2.127,1.547,3.868,3.439,3.868h0.451c1.823,0,3.111-1.654,3.111-3.675c0-0.389,0.013-0.745,0-1.075l0,0V24.075z"/><path fill="#1f212b" d="M29.657,43.575h-0.451c-2.172,0-3.938-1.96-3.938-4.368c0-0.36,0.007-0.692,0.018-1.004c-0.012-0.041-0.018-0.084-0.018-0.128v-14c0-0.276,0.224-0.5,0.5-0.5h7c0.276,0,0.5,0.224,0.5,0.5v14.25c0.008,0.206,0.006,0.442,0.003,0.692L33.268,39.4C33.268,41.78,31.716,43.575,29.657,43.575z M26.268,37.937c0.017,0.051,0.025,0.104,0.023,0.159c-0.015,0.341-0.023,0.708-0.023,1.11c0,1.857,1.318,3.368,2.938,3.368h0.451c1.488,0,2.61-1.365,2.61-3.175l0.003-0.394c0.003-0.233,0.006-0.453-0.003-0.662v-13.77h-6V37.937z"/><path fill="#fff" d="M39.768,24.075h-7v14h0.024c-0.015,0.347-0.024,0.722-0.024,1.132c0,2.127,1.547,3.868,3.439,3.868h0.451c1.823,0,3.111-1.654,3.111-3.675c0-0.389,0.013-0.745,0-1.075l0,0V24.075z"/><path fill="#1f212b" d="M36.657,43.575h-0.451c-2.172,0-3.938-1.96-3.938-4.368c0-0.36,0.007-0.692,0.018-1.004c-0.012-0.041-0.018-0.084-0.018-0.128v-14c0-0.276,0.224-0.5,0.5-0.5h7c0.276,0,0.5,0.224,0.5,0.5v14.25c0.008,0.206,0.006,0.442,0.003,0.692L40.268,39.4C40.268,41.78,38.716,43.575,36.657,43.575z M33.268,37.937c0.017,0.051,0.025,0.104,0.023,0.159c-0.015,0.341-0.023,0.708-0.023,1.11c0,1.857,1.318,3.368,2.938,3.368h0.451c1.488,0,2.61-1.365,2.61-3.175l0.003-0.394c0.003-0.233,0.006-0.453-0.003-0.662v-13.77h-6V37.937z"/><g><path fill="#f37e98" d="M46.768,24.075h-7v14h0.024c-0.015,0.347-0.024,0.722-0.024,1.132c0,2.127,1.547,3.868,3.439,3.868h0.451c1.823,0,3.111-1.654,3.111-3.675c0-0.389,0.013-0.745,0-1.075l0,0V24.075z"/><path fill="#1f212b" d="M43.657,43.575h-0.451c-2.172,0-3.938-1.96-3.938-4.368c0-0.36,0.007-0.692,0.018-1.004c-0.012-0.041-0.018-0.084-0.018-0.128v-14c0-0.276,0.224-0.5,0.5-0.5h7c0.276,0,0.5,0.224,0.5,0.5v14.25c0.008,0.206,0.006,0.442,0.003,0.692L47.268,39.4C47.268,41.78,45.716,43.575,43.657,43.575z M40.268,37.937c0.017,0.051,0.025,0.104,0.023,0.159c-0.015,0.341-0.023,0.708-0.023,1.11c0,1.857,1.318,3.368,2.938,3.368h0.451c1.488,0,2.61-1.365,2.61-3.175l0.003-0.394c0.003-0.233,0.006-0.453-0.003-0.662v-13.77h-6V37.937z"/></g><g><path fill="#fff" d="M53.768,24.075h-7v14h0.024c-0.015,0.347-0.024,0.722-0.024,1.132c0,2.127,1.547,3.868,3.439,3.868h0.451c1.823,0,3.111-1.654,3.111-3.675c0-0.389,0.013-0.745,0-1.075l0,0V24.075z"/><path fill="#1f212b" d="M50.657,43.575h-0.451c-2.172,0-3.938-1.96-3.938-4.368c0-0.36,0.007-0.692,0.018-1.004c-0.012-0.041-0.018-0.084-0.018-0.128v-14c0-0.276,0.224-0.5,0.5-0.5h7c0.276,0,0.5,0.224,0.5,0.5v14.25c0.008,0.206,0.006,0.442,0.003,0.692L54.268,39.4C54.268,41.78,52.716,43.575,50.657,43.575z M47.268,37.937c0.017,0.051,0.025,0.104,0.023,0.159c-0.015,0.341-0.023,0.708-0.023,1.11c0,1.857,1.318,3.368,2.938,3.368h0.451c1.488,0,2.61-1.365,2.61-3.175l0.003-0.394c0.003-0.233,0.006-0.453-0.003-0.662v-13.77h-6V37.937z"/></g><g><path fill="#f37e98" d="M60.768,24.075h-7v14h0.024c-0.015,0.347-0.024,0.722-0.024,1.132c0,2.127,1.547,3.868,3.439,3.868h0.451c1.823,0,3.111-1.68,3.111-3.701c0-0.389,0.013-0.719,0-1.049l0,0V24.075z"/><path fill="#1f212b" d="M57.657,43.575h-0.451c-2.172,0-3.938-1.96-3.938-4.368c0-0.36,0.007-0.692,0.018-1.004c-0.012-0.041-0.018-0.084-0.018-0.128v-14c0-0.276,0.224-0.5,0.5-0.5h7c0.276,0,0.5,0.224,0.5,0.5v14.25c0.008,0.205,0.006,0.43,0.003,0.671l-0.003,0.378C61.268,41.729,59.682,43.575,57.657,43.575z M54.268,37.937c0.017,0.051,0.025,0.104,0.023,0.159c-0.015,0.341-0.023,0.708-0.023,1.11c0,1.857,1.318,3.368,2.938,3.368h0.451c1.488,0,2.61-1.376,2.61-3.201l0.003-0.39c0.003-0.225,0.006-0.432-0.003-0.64v-13.77h-6V37.937z"/></g><g><path fill="#fff" d="M67.768,24.075h-7v14h0.009c-0.005,0.236-0.009,0.479-0.009,0.738c0,2.344,1.549,4.262,3.443,4.262h0.451c1.826,0,3.109-1.87,3.109-4.097c0-0.246,0.001-0.429-0.004-0.653l0,0V24.075z"/><path fill="#1f212b" d="M64.662,43.575h-0.451c-2.175,0-3.943-2.136-3.943-4.762c0-0.229,0.003-0.445,0.007-0.655c-0.005-0.027-0.007-0.055-0.007-0.083v-14c0-0.276,0.224-0.5,0.5-0.5h7c0.276,0,0.5,0.224,0.5,0.5v14.25c0.004,0.219,0.004,0.404,0.004,0.653C68.272,41.598,66.72,43.575,64.662,43.575z M61.268,37.985c0.007,0.033,0.01,0.066,0.009,0.101c-0.005,0.232-0.009,0.473-0.009,0.728c0,2.074,1.32,3.762,2.943,3.762h0.451c1.463,0,2.609-1.58,2.609-3.597c0-0.243,0-0.423-0.004-0.645V24.575h-6V37.985z"/></g><g><path fill="#f37e98" d="M74.768,24.075h-7v14h0.024c-0.015,0.347-0.024,0.722-0.024,1.132c0,2.127,1.547,3.868,3.439,3.868h0.451c1.823,0,3.111-1.654,3.111-3.675c0-0.389,0.013-0.745,0-1.075l0,0V24.075z"/><path fill="#1f212b" d="M71.657,43.575h-0.451c-2.172,0-3.938-1.96-3.938-4.368c0-0.36,0.007-0.692,0.018-1.004c-0.012-0.041-0.018-0.084-0.018-0.128v-14c0-0.276,0.224-0.5,0.5-0.5h7c0.276,0,0.5,0.224,0.5,0.5v14.25c0.008,0.206,0.006,0.442,0.003,0.692L75.268,39.4C75.268,41.78,73.716,43.575,71.657,43.575z M68.268,37.937c0.017,0.051,0.025,0.104,0.023,0.159c-0.015,0.341-0.023,0.708-0.023,1.11c0,1.857,1.318,3.368,2.938,3.368h0.451c1.488,0,2.61-1.365,2.61-3.175l0.003-0.394c0.003-0.233,0.006-0.453-0.003-0.662v-13.77h-6V37.937z"/></g><g><path fill="#fff" d="M81.847,38.325L81.847,38.325l-2.231-14.25h-4.848v14h0.024c-0.015,0.347-0.024,0.722-0.024,1.132v0c0,2.127,1.547,3.868,3.439,3.868H78.6c1.797,0,3.267-1.654,3.267-3.675v0C81.867,39.01,81.859,38.656,81.847,38.325z"/><path fill="#1f212b" d="M78.601,43.575h-0.395c-2.172,0-3.938-1.96-3.938-4.368c0-0.36,0.007-0.692,0.018-1.004c-0.012-0.041-0.018-0.084-0.018-0.128v-14c0-0.276,0.224-0.5,0.5-0.5h4.848c0.246,0,0.456,0.18,0.494,0.423l2.231,14.25c0.003,0.02,0.005,0.038,0.006,0.058c0.013,0.337,0.021,0.697,0.021,1.095C82.367,41.702,80.678,43.575,78.601,43.575z M75.268,37.937c0.017,0.051,0.025,0.104,0.023,0.159c-0.015,0.341-0.023,0.708-0.023,1.11c0,1.857,1.318,3.368,2.938,3.368h0.395c1.525,0,2.767-1.424,2.767-3.175c0-0.372-0.007-0.71-0.02-1.027l-2.16-13.798h-3.92V37.937z"/></g><path fill="#1f212b" d="M81.768,39.575h-63c-0.276,0-0.5-0.224-0.5-0.5s0.224-0.5,0.5-0.5h63c0.276,0,0.5,0.224,0.5,0.5S82.044,39.575,81.768,39.575z"/><g><path fill="#ceccbe" d="M18.268 79.575H82.268V82.575H18.268z"/><path fill="#1f212b" d="M82.268,83.575h-64c-0.553,0-1-0.447-1-1v-3c0-0.553,0.447-1,1-1h64c0.553,0,1,0.447,1,1v3C83.268,83.128,82.82,83.575,82.268,83.575z M19.268,81.575h62v-1h-62V81.575z"/></g></svg>